<svg xmlns="http://www.w3.org/2000/svg" viewBox="0 0 496.25 410.33"><defs><style>.cls-1{fill:#006fe8;}.cls-2{fill:#00192b;}</style></defs><g id="Camada_2" data-name="Camada 2"><g id="Camada_1-2" data-name="Camada 1"><polygon class="cls-1" points="230.87 53.22 230.87 0 0 184.34 0 225.99 230.87 410.33 230.87 361.64 230.87 357.11 230.87 204.24 128.28 204.24 151.98 242.15 189.89 242.15 189.89 325.27 36.32 205.94 36.32 204.4 230.87 53.22"/><path class="cls-2" d="M0,184.34,230.87,0V53.22L36.32,204.4v1.54L230.87,357.11v53.22L0,226Z"/><polygon class="cls-1" points="265.38 53.22 265.38 0 496.25 184.34 496.25 225.99 265.38 410.33 265.38 361.64 265.38 357.11 265.38 204.24 367.96 204.24 344.27 242.15 306.36 242.15 306.36 325.27 459.93 205.94 459.93 204.4 265.38 53.22"/><path class="cls-2" d="M496.25,226,265.38,410.33V357.11L459.93,205.94V204.4L265.38,53.22V0L496.25,184.34Z"/></g></g></svg>